# xmcd CD database file
#
# Track frame offsets:
#	150
#	29657
#	56227
#	82760
#	100557
#	119465
#	150687
#	176095
#	205167
#	242535
#	261307
#
# Disc length: 3986 seconds
#
# Revision: 3
# Processed by: cddbd v1.5.1PL0 Copyright (c) Steve Scherf et al.
# Submitted via: CDex 1.51
#
DISCID=8f0f900b
DTITLE=Winard Harper - Be Yourself
DYEAR=1994
DGENRE=Jazz
TTITLE0=Night Watch
TTITLE1=Lil' Willie
TTITLE2=My Shell
TTITLE3=Trane Stop
TTITLE4=Last Dance
TTITLE5=Hi Fly
TTITLE6=Quiet As It's Kept
TTITLE7=Lonesome Head
TTITLE8=You're Looking At Me
TTITLE9=Toku-Do
TTITLE10=The Pooh
EXTD=1994  epicure (Sony) EK 66368\nWinard Harper: Drums\nBuster Williams: Bass\nReuben Brown: Piano\n\nEntry:  Mike Lempriere  mikel@spekeasy.org  30-Dec-96\n YEAR: 1994
EXTT0=
EXTT1=
EXTT2=
EXTT3=
EXTT4=
EXTT5=
EXTT6=
EXTT7=
EXTT8=
EXTT9=
EXTT10=
PLAYORDER=
